<svg width="512" height="512" viewBox="0 0 512 512" fill="none" xmlns="http://www.w3.org/2000/svg">
  <defs>
    <linearGradient id="mark-blue" x1="119" y1="52" x2="399" y2="362" gradientUnits="userSpaceOnUse">
      <stop offset="0" stop-color="#56E4FF"/>
      <stop offset="0.4" stop-color="#15BFFF"/>
      <stop offset="0.72" stop-color="#1363FF"/>
      <stop offset="1" stop-color="#7B39FF"/>
    </linearGradient>
    <linearGradient id="mark-book" x1="93" y1="333" x2="421" y2="372" gradientUnits="userSpaceOnUse">
      <stop offset="0" stop-color="#00D3FF"/>
      <stop offset="0.56" stop-color="#FFFFFF"/>
      <stop offset="1" stop-color="#0A7DFF"/>
    </linearGradient>
  </defs>

  <path d="M164 53L281 67L195 115L102 98L164 53Z" fill="url(#mark-blue)"/>
  <path d="M136 99H148V180H136V99Z" fill="#13B7FF"/>
  <circle cx="142" cy="124" r="6" fill="#7DEBFF"/>
  <circle cx="142" cy="151" r="6" fill="#7DEBFF"/>
  <circle cx="142" cy="178" r="6" fill="#7DEBFF"/>
  <path d="M142 183L124 220H160L142 183Z" fill="#13B7FF"/>

  <path d="M135 147C135 128 151 113 170 113H288C324 113 353 142 353 179V191H310V186C310 164 292 146 270 146H189V330L135 317V147Z" fill="url(#mark-blue)"/>
  <path d="M203 176H266C292 176 313 197 313 223C313 249 292 270 266 270H203V176ZM256 223C256 215 250 209 242 209H203V238H242C250 238 256 232 256 223Z" fill="#041033"/>
  <path d="M203 266H261L333 377H268L203 292V266Z" fill="#041033"/>

  <path d="M330 168H388L424 224L463 168H512L444 257L521 377H462L419 313L375 377H318L394 257L330 168Z" fill="url(#mark-blue)"/>
  <path d="M433 109L448 143L482 158L448 173L433 207L418 173L384 158L418 143L433 109Z" fill="#36DAFF"/>

  <path d="M93 347L155 336L248 356L257 366L266 356L358 336L421 347L408 365L308 362L257 387L206 362L105 365L93 347Z" fill="#0C6EFF"/>
  <path d="M108 323L169 317L249 335L257 346L265 335L346 317L406 323L394 341L302 339L257 361L212 339L120 341L108 323Z" fill="url(#mark-book)"/>
  <path d="M126 305L180 304L249 320L257 331L264 320L334 304L388 305L377 321L294 321L257 339L220 321L137 321L126 305Z" fill="#F6F7FB"/>
</svg>
