<svg width="820" height="720" viewBox="0 0 820 720" fill="none" xmlns="http://www.w3.org/2000/svg">
  <defs>
    <linearGradient id="rx-blue" x1="182" y1="86" x2="610" y2="522" gradientUnits="userSpaceOnUse">
      <stop offset="0" stop-color="#56E4FF"/>
      <stop offset="0.38" stop-color="#15BFFF"/>
      <stop offset="0.68" stop-color="#1363FF"/>
      <stop offset="1" stop-color="#7B39FF"/>
    </linearGradient>
    <linearGradient id="rx-book" x1="129" y1="466" x2="685" y2="530" gradientUnits="userSpaceOnUse">
      <stop offset="0" stop-color="#00D3FF"/>
      <stop offset="0.54" stop-color="#FFFFFF"/>
      <stop offset="1" stop-color="#0A7DFF"/>
    </linearGradient>
    <linearGradient id="rx-cap" x1="165" y1="90" x2="352" y2="164" gradientUnits="userSpaceOnUse">
      <stop offset="0" stop-color="#72ECFF"/>
      <stop offset="1" stop-color="#1974FF"/>
    </linearGradient>
    <filter id="shadow" x="86" y="58" width="648" height="608" filterUnits="userSpaceOnUse" color-interpolation-filters="sRGB">
      <feFlood flood-opacity="0" result="BackgroundImageFix"/>
      <feColorMatrix in="SourceAlpha" type="matrix" values="0 0 0 0 0 0 0 0 0 0 0 0 0 0 0 0 0 0 127 0" result="hardAlpha"/>
      <feOffset dy="14"/>
      <feGaussianBlur stdDeviation="18"/>
      <feColorMatrix type="matrix" values="0 0 0 0 0.02 0 0 0 0 0.1 0 0 0 0 0.32 0 0 0 0.5 0"/>
      <feBlend mode="normal" in2="BackgroundImageFix" result="effect1_dropShadow_0_1"/>
      <feBlend mode="normal" in="SourceGraphic" in2="effect1_dropShadow_0_1" result="shape"/>
    </filter>
  </defs>

  <g filter="url(#shadow)">
    <path d="M230 87L360 104L266 158L165 139L230 87Z" fill="url(#rx-cap)"/>
    <path d="M203 143H219V238H203V143Z" fill="#13B7FF"/>
    <circle cx="211" cy="173" r="8" fill="#7DEBFF"/>
    <circle cx="211" cy="205" r="8" fill="#7DEBFF"/>
    <circle cx="211" cy="237" r="8" fill="#7DEBFF"/>
    <path d="M211 243L190 287H232L211 243Z" fill="#13B7FF"/>
    <path d="M214 243L206 299L216 299L214 243Z" fill="#13B7FF"/>

    <path d="M206 188C206 167 223 150 244 150H366C406 150 438 182 438 221V235H388V228C388 203 368 183 343 183H265V454L206 440V188Z" fill="url(#rx-blue)"/>
    <path d="M279 230H347C376 230 400 253 400 282C400 311 376 334 347 334H279V230ZM338 282C338 273 331 266 322 266H279V299H322C331 299 338 291 338 282Z" fill="#041033"/>
    <path d="M280 330H341L421 454H348L280 358V330Z" fill="#041033"/>

    <path d="M430 220H500L543 283L589 220H655L576 320L664 454H593L539 381L485 454H420L508 320L430 220Z" fill="url(#rx-blue)"/>
    <path d="M628 146L647 190L691 209L647 228L628 272L608 228L564 209L608 190L628 146Z" fill="#36DAFF"/>

    <path d="M129 466L207 450L361 479L409 509L458 479L612 450L685 466L667 489L493 487L409 519L325 487L147 489L129 466Z" fill="#0C6EFF"/>
    <path d="M148 435L227 425L361 455L405 486L450 455L585 425L664 435L646 458L488 456L405 489L322 456L166 458L148 435Z" fill="url(#rx-book)"/>
    <path d="M167 405L239 401L362 430L404 463L447 430L571 401L643 405L627 428L481 429L404 459L327 429L183 428L167 405Z" fill="#F6F7FB"/>
    <path d="M188 382L251 382L363 408L404 440L446 408L560 382L622 382L606 404L474 407L404 435L335 407L205 404L188 382Z" fill="#D5D9E5"/>

    <text x="112" y="604" fill="url(#rx-blue)" font-family="Arial, sans-serif" font-size="72" font-weight="800" letter-spacing="2">RX</text>
    <text x="286" y="604" fill="#FFFFFF" font-family="Arial, sans-serif" font-size="72" font-weight="800" letter-spacing="2">STUDY</text>
    <text x="604" y="604" fill="url(#rx-blue)" font-family="Arial, sans-serif" font-size="72" font-weight="800" letter-spacing="2">AI</text>

    <line x1="103" y1="648" x2="176" y2="648" stroke="#0CCEFF" stroke-width="4" stroke-linecap="round"/>
    <line x1="641" y1="648" x2="714" y2="648" stroke="#0CCEFF" stroke-width="4" stroke-linecap="round"/>
    <text x="195" y="658" fill="#C8CDD7" font-family="Arial, sans-serif" font-size="28" font-weight="600" letter-spacing="5">LEARN SMARTER, ACHIEVE MORE</text>
  </g>
</svg>
